<?xml version="1.0" standalone="no"?>
<!DOCTYPE svg PUBLIC "-//W3C//DTD SVG 20010904//EN"
 "http://www.w3.org/TR/2001/REC-SVG-20010904/DTD/svg10.dtd">
<svg version="1.0" xmlns="http://www.w3.org/2000/svg"
 width="130.000000pt" height="130.000000pt" viewBox="0 0 130.000000 130.000000"
 preserveAspectRatio="xMidYMid meet">
<metadata>
Created by potrace 1.14, written by Peter Selinger 2001-2017
</metadata>
<g transform="translate(0.000000,130.000000) scale(0.100000,-0.100000)"
fill="#000000" stroke="none">
<path d="M555 1091 c-43 -19 -119 -88 -148 -133 -22 -34 -19 -34 43 -2 28 14
61 27 74 28 13 0 22 4 20 7 -6 10 80 29 130 29 58 0 59 -13 4 -29 -83 -25
-155 -87 -220 -190 l-21 -33 79 4 c134 6 222 70 255 186 6 23 17 42 23 42 7 0
33 -13 59 -30 25 -16 49 -25 52 -20 9 14 -93 107 -148 135 -62 31 -143 33
-202 6z m205 -87 c0 -2 -9 -8 -19 -13 -16 -9 -18 -8 -14 8 3 12 11 17 19 14 8
-3 14 -7 14 -9z"/>
<path d="M930 923 c0 -5 10 -24 21 -43 35 -57 59 -140 65 -220 l6 -75 -26 24
c-14 14 -26 29 -26 35 0 6 4 4 10 -4 16 -26 22 -2 9 37 -17 52 -50 102 -94
142 -37 33 -112 81 -129 81 -5 0 -6 -28 -4 -63 6 -69 36 -148 71 -185 23 -26
106 -71 140 -78 35 -6 38 -19 17 -65 -48 -102 -48 -101 -130 -146 -73 -39
-155 -58 -237 -54 -34 2 -28 18 10 26 17 4 51 18 73 31 23 13 45 20 49 16 5
-4 5 -2 1 5 -3 6 3 18 15 27 24 16 99 113 99 127 0 5 -31 9 -69 9 -66 0 -92
-8 -178 -53 -24 -12 -78 -98 -88 -139 -4 -16 -11 -28 -17 -28 -15 0 -64 28
-77 44 -15 18 -31 21 -31 7 0 -5 23 -34 50 -64 67 -73 117 -97 203 -97 87 0
148 30 208 101 24 28 78 85 120 128 100 100 114 127 114 221 0 86 -13 117 -78
187 -39 43 -97 82 -97 66z m-344 -582 c-13 -15 -14 -20 -4 -24 7 -3 3 -4 -9
-4 -13 1 -23 3 -23 5 0 5 43 41 49 42 2 0 -4 -9 -13 -19z"/>
<path d="M323 862 c-101 -94 -131 -219 -77 -316 38 -67 144 -154 144 -117 0 6
-4 12 -9 15 -16 10 -59 112 -70 169 -12 56 -6 147 9 147 4 0 15 -12 24 -27
l17 -28 -22 25 -22 25 8 -35 c14 -69 47 -128 98 -177 57 -55 120 -97 130 -86
25 24 -12 191 -52 237 -26 30 -100 77 -137 87 -33 10 -42 25 -26 45 20 21 53
84 45 84 -4 0 -32 -22 -60 -48z"/>
</g>
</svg>
